<svg width="376" height="204" viewBox="0 0 376 204" fill="none" xmlns="http://www.w3.org/2000/svg">
<path d="M311.254 204C315.087 204 318.421 202.667 321.254 200L371.254 150C373.921 147.167 375.254 143.833 375.254 140V64C375.254 60.1667 373.921 56.8333 371.254 54L321.254 4C318.421 1.33332 315.087 -1.29938e-05 311.254 -1.29938e-05H237.504C233.504 -1.29938e-05 230.171 1.33332 227.504 4L177.504 54C174.671 56.8333 173.254 60.1667 173.254 64L172.504 122.5L54.5039 127.5V81.5H152.504V64C152.671 61.1667 151.254 57.8333 148.254 54L106.504 4C104.337 1.33332 101.004 -1.29938e-05 96.5039 -1.29938e-05H64.5039C60.6706 -1.29938e-05 57.3372 1.33332 54.5039 4L4.50388 54C1.67056 57.1667 0.253892 60.5 0.253892 64V140C0.253892 143.833 1.67056 147.167 4.50388 150L54.5039 200C57.3372 202.667 60.6706 204 64.5039 204H134.004C138.004 204 141.337 202.667 144.004 200L198.254 150C201.087 147.167 202.504 143.833 202.504 140L203.254 81.5L321.254 76.5V122.5H223.254V140C222.921 142.667 224.337 146 227.504 150L269.004 200C271.504 202.667 274.837 204 279.004 204H311.254Z" fill="black"/>
</svg>
